HIERARCHY
ROOT hip
{
  OFFSET 0 0 0
  CHANNELS 6 Xposition Yposition Zposition Zrotation Yrotation Xrotation
  JOINT abdomen
  {
    OFFSET 0 20.6881 -0.73152
    CHANNELS 3 Zrotation Xrotation Yrotation
    JOINT chest
    {
      OFFSET 0 11.7043 -0.48768
      CHANNELS 3 Zrotation Xrotation Yrotation
      JOINT neck
      {
        OFFSET 0 22.1894 -2.19456
        CHANNELS 3 Zrotation Xrotation Yrotation
        JOINT head
        {
          OFFSET -0.24384 7.07133 1.2192
          CHANNELS 3 Zrotation Xrotation Yrotation
          JOINT leftEye
          {
            OFFSET 4.14528 8.04674 8.04672
            CHANNELS 3 Zrotation Xrotation Yrotation
            End Site
            {
              OFFSET 1 0 0
            }
          }
          JOINT rightEye
          {
            OFFSET -3.6576 8.04674 8.04672
            CHANNELS 3 Zrotation Xrotation Yrotation
            End Site
            {
              OFFSET 1 0 0
            }
          }
        }
      }
      JOINT rCollar
      {
        OFFSET -2.68224 19.2634 -4.8768
        CHANNELS 3 Zrotation Xrotation Yrotation
        JOINT rShldr
        {
          OFFSET -8.77824 -1.95073 1.46304
          CHANNELS 3 Zrotation Xrotation Yrotation
          JOINT rForeArm
          {
            OFFSET -28.1742 -1.7115 0.48768
            CHANNELS 3 Zrotation Xrotation Yrotation
            JOINT rHand
            {
              OFFSET -22.5879 0.773209 7.07136
              CHANNELS 3 Zrotation Xrotation Yrotation
              JOINT rThumb1
              {
                OFFSET -1.2192 -0.487915 3.41376
                CHANNELS 3 Zrotation Xrotation Yrotation
                JOINT rThumb2
                {
                  OFFSET -3.37035 -0.52449 3.41376
                  CHANNELS 3 Zrotation Xrotation Yrotation
                  End Site
                  {
                    OFFSET -1.78271 -1.18214 1.43049
                  }
                }
              }
              JOINT rIndex1
              {
                OFFSET -7.75947 0.938293 5.60832
                CHANNELS 3 Zrotation Xrotation Yrotation
                JOINT rIndex2
                {
                  OFFSET -2.54057 -0.884171 1.56538
                  CHANNELS 3 Zrotation Xrotation Yrotation
                  End Site
                  {
                    OFFSET -1.62519 -0.234802 1.16502
                  }
                }
              }
              JOINT rMid1
              {
                OFFSET -8.24714 1.18213 3.41376
                CHANNELS 3 Zrotation Xrotation Yrotation
                JOINT rMid2
                {
                  OFFSET -3.10165 -0.590103 1.0647
                  CHANNELS 3 Zrotation Xrotation Yrotation
                  End Site
                  {
                    OFFSET -2.48547 -0.328903 0.83742
                  }
                }
              }
              JOINT rRing1
              {
                OFFSET -8.82822 0.546677 1.51678
                CHANNELS 3 Zrotation Xrotation Yrotation
                JOINT rRing2
                {
                  OFFSET -2.60934 -0.819778 -0.0198488
                  CHANNELS 3 Zrotation Xrotation Yrotation
                  End Site
                  {
                    OFFSET -2.33842 -0.294052 0.168128
                  }
                }
              }
              JOINT rPinky1
              {
                OFFSET -8.27202 -0.0477905 -0.4584
                CHANNELS 3 Zrotation Xrotation Yrotation
                JOINT rPinky2
                {
                  OFFSET -1.82734 -0.647385 -0.700984
                  CHANNELS 3 Zrotation Xrotation Yrotation
                  End Site
                  {
                    OFFSET -1.69225 -0.51767 -0.607171
                  }
                }
              }
            }
          }
        }
      }
      JOINT lCollar
      {
        OFFSET 2.68224 19.2634 -4.8768
        CHANNELS 3 Zrotation Xrotation Yrotation
        JOINT lShldr
        {
          OFFSET 8.77824 -1.95073 1.46304
          CHANNELS 3 Zrotation Xrotation Yrotation
          JOINT lForeArm
          {
            OFFSET 28.1742 -1.7115 0.48768
            CHANNELS 3 Zrotation Xrotation Yrotation
            JOINT lHand
            {
              OFFSET 22.5879 0.773209 7.07136
              CHANNELS 3 Zrotation Xrotation Yrotation
              JOINT lThumb1
              {
                OFFSET 1.2192 -0.487915 3.41376
                CHANNELS 3 Zrotation Xrotation Yrotation
                JOINT lThumb2
                {
                  OFFSET 3.37035 -0.52449 3.41376
                  CHANNELS 3 Zrotation Xrotation Yrotation
                  End Site
                  {
                    OFFSET 1.78271 -1.18214 1.43049
                  }
                }
              }
              JOINT lIndex1
              {
                OFFSET 7.75947 0.938293 5.60832
                CHANNELS 3 Zrotation Xrotation Yrotation
                JOINT lIndex2
                {
                  OFFSET 2.54057 -0.884171 1.56538
                  CHANNELS 3 Zrotation Xrotation Yrotation
                  End Site
                  {
                    OFFSET 1.62519 -0.234802 1.16502
                  }
                }
              }
              JOINT lMid1
              {
                OFFSET 8.24714 1.18213 3.41376
                CHANNELS 3 Zrotation Xrotation Yrotation
                JOINT lMid2
                {
                  OFFSET 3.10165 -0.590103 1.0647
                  CHANNELS 3 Zrotation Xrotation Yrotation
                  End Site
                  {
                    OFFSET 2.48547 -0.328903 0.83742
                  }
                }
              }
              JOINT lRing1
              {
                OFFSET 8.82822 0.546677 1.51678
                CHANNELS 3 Zrotation Xrotation Yrotation
                JOINT lRing2
                {
                  OFFSET 2.60934 -0.819778 -0.0198488
                  CHANNELS 3 Zrotation Xrotation Yrotation
                  End Site
                  {
                    OFFSET 2.33842 -0.294052 0.168128
                  }
                }
              }
              JOINT lPinky1
              {
                OFFSET 8.27202 -0.0477905 -0.4584
                CHANNELS 3 Zrotation Xrotation Yrotation
                JOINT lPinky2
                {
                  OFFSET 1.82734 -0.647385 -0.700984
                  CHANNELS 3 Zrotation Xrotation Yrotation
                  End Site
                  {
                    OFFSET 1.69225 -0.51767 -0.607171
                  }
                }
              }
            }
          }
        }
      }
    }
  }
  JOINT rButtock
  {
    OFFSET -8.77824 4.35084 1.2192
    CHANNELS 3 Zrotation Xrotation Yrotation
    JOINT rThigh
    {
      OFFSET 0 -1.70687 -2.19456
      CHANNELS 3 Zrotation Xrotation Yrotation
      JOINT rShin
      {
        OFFSET 0 -36.8199 0.73152
        CHANNELS 3 Zrotation Xrotation Yrotation
        JOINT rFoot
        {
          OFFSET 0.73152 -45.1104 -5.12064
          CHANNELS 3 Zrotation Xrotation Yrotation
          End Site
          {
            OFFSET -1.1221 -3.69964 12.103
          }
        }
      }
    }
  }
  JOINT lButtock
  {
    OFFSET 8.77824 4.35084 1.2192
    CHANNELS 3 Zrotation Xrotation Yrotation
    JOINT lThigh
    {
      OFFSET 0 -1.70687 -2.19456
      CHANNELS 3 Zrotation Xrotation Yrotation
      JOINT lShin
      {
        OFFSET 0 -36.8199 0.73152
        CHANNELS 3 Zrotation Xrotation Yrotation
        JOINT lFoot
        {
          OFFSET -0.73152 -45.1104 -5.12064
          CHANNELS 3 Zrotation Xrotation Yrotation
          End Site
          {
            OFFSET 1.1221 -3.69964 12.103
          }
        }
      }
    }
  }
}
MOTION
Frames:	7
Frame Time:	0.00833333
76.677 81.3516 29.9234 -134.506 -77.0197 139.785 9.92694 -8.70993 8.96699 -1.35662 0.433381 2.05372 -6.93577 -2.44116 -5.1688 11.2145 -5.76616 -7.66151 -0.0 0.0 0.0 -0.0 0.0 0.0 5.60269e-14 -9.25227e-11 -2.31274e-14 46.8891 40.1774 38.3607 -25.9754 -23.3714 56.6702 -0.110785 -9.4487 -1.34022 -2.07054e-09 1.41277e-09 4.10473e-09 -3.61155e-09 2.44585e-09 7.08267e-09 -2.07053e-09 1.41276e-09 4.10472e-09 7.73091 5.47488 0.417314 -2.07054e-09 1.41277e-09 4.10473e-09 2.90554 0.965183 0.102902 -2.07053e-09 1.41276e-09 4.10473e-09 10.2786 0.731801 0.0259123 -2.07054e-09 1.41277e-09 4.10474e-09 2.22167 -0.733487 -0.20892 5.59129e-14 -9.2529e-11 -2.32733e-14 -88.809 37.487 23.0314 17.9592 -10.6429 -33.9284 0.00218502 -1.33024 0.186987 -1.50578e-09 5.47376e-12 1.45842e-09 -2.5962e-09 1.28715e-11 2.53147e-09 -1.50578e-09 5.47576e-12 1.45842e-09 -7.73091 5.47488 -0.417314 -1.50578e-09 5.47756e-12 1.45842e-09 -2.90554 0.965183 -0.102902 -1.50578e-09 5.47723e-12 1.45842e-09 -10.2786 0.731801 -0.0259123 -1.50577e-09 5.47881e-12 1.45841e-09 -2.22167 -0.733487 0.20892 -2.03217e-16 0.0 -3.88251e-19 9.50436 4.64581 3.84969 -0.211348 26.8989 0.174029 -1.04174 -5.9279 -3.42096 2.03217e-16 0.0 3.88251e-19 14.8271 -44.1511 12.4788 3.32167 44.2582 24.2093 -179.402 -1.03585 28.8053
75.6963 81.1961 30.1463 -135.233 -77.4486 140.563 9.37351 -9.02847 8.59466 -1.35107 0.448953 1.9376 -6.7554 -2.47414 -5.05732 11.046 -5.47749 -7.53691 -0.0 0.0 0.0 -0.0 0.0 0.0 6.76323e-14 -1.43581e-10 -2.00423e-13 48.6375 41.544 35.7298 -25.879 -23.1277 56.2795 -0.102604 -9.09359 -1.28898 -1.50274e-09 1.10551e-09 5.04582e-09 -2.63761e-09 1.91914e-09 8.71683e-09 -1.50273e-09 1.1055e-09 5.0458e-09 7.73091 5.47488 0.417314 -1.50274e-09 1.10551e-09 5.04582e-09 2.90554 0.965183 0.102902 -1.50274e-09 1.10551e-09 5.04582e-09 10.2786 0.731801 0.0259123 -1.50275e-09 1.10551e-09 5.04583e-09 2.22167 -0.733487 -0.20892 6.75006e-14 -1.43591e-10 -2.00635e-13 -88.8311 37.1558 21.1933 17.8619 -10.5393 -33.7104 0.00245337 -1.40913 0.198081 -1.0819e-09 -4.69847e-10 1.44911e-09 -1.86103e-09 -8.099e-10 2.51506e-09 -1.0819e-09 -4.69843e-10 1.4491e-09 -7.73091 5.47488 -0.417314 -1.0819e-09 -4.69841e-10 1.4491e-09 -2.90554 0.965183 -0.102902 -1.0819e-09 -4.69842e-10 1.44911e-09 -10.2786 0.731801 -0.0259123 -1.08189e-09 -4.6984e-10 1.4491e-09 -2.22167 -0.733487 0.20892 -2.03217e-16 0.0 -3.88251e-19 8.33774 3.51962 2.90012 -0.239603 29.2494 0.18687 -0.756738 -4.30199 -2.27778 2.03217e-16 0.0 3.88251e-19 13.0939 -41.93 11.369 4.30508 42.4815 30.9998 -178.463 -3.086 36.713
74.728 81.0565 30.4104 -135.917 -78.1057 141.217 8.59701 -9.13469 8.06812 -1.2749 0.413864 1.79126 -6.61718 -2.57436 -4.97864 10.9343 -5.23326 -7.44799 -0.0 0.0 0.0 -0.0 0.0 0.0 5.89456e-14 -1.64407e-10 -2.94947e-13 50.5983 42.7052 32.9022 -25.7659 -22.8483 55.8161 -0.0939509 -8.70963 -1.23367 -1.04217e-09 8.36712e-10 5.26237e-09 -1.84346e-09 1.45676e-09 9.09615e-09 -1.04216e-09 8.36703e-10 5.26236e-09 7.73091 5.47488 0.417314 -1.04217e-09 8.36706e-10 5.26237e-09 2.90554 0.965183 0.102902 -1.04216e-09 8.36705e-10 5.26237e-09 10.2786 0.731801 0.0259123 -1.04218e-09 8.36707e-10 5.26239e-09 2.22167 -0.733487 -0.20892 5.88026e-14 -1.64418e-10 -2.95195e-13 -88.7706 37.0392 19.1461 17.8018 -10.4752 -33.577 0.0024776 -1.42113 0.199768 -7.00527e-10 -7.26655e-10 1.38324e-09 -1.2009e-09 -1.25463e-09 2.40031e-09 -7.00529e-10 -7.2665e-10 1.38323e-09 -7.73091 5.47488 -0.417314 -7.00526e-10 -7.26648e-10 1.38323e-09 -2.90554 0.965183 -0.102902 -7.00532e-10 -7.26648e-10 1.38324e-09 -10.2786 0.731801 -0.0259123 -7.00524e-10 -7.26648e-10 1.38323e-09 -2.22167 -0.733487 0.20892 -2.03217e-16 0.0 -3.88251e-19 7.05934 2.15224 1.84356 -0.274405 31.968 0.215209 -0.549545 -2.12323 -1.36669 2.03217e-16 0.0 3.88251e-19 11.218 -40.0559 10.152 5.88039 41.9478 38.0144 -177.797 -5.17967 45.0718
73.7872 80.952 30.7141 -136.55 -79.0072 141.728 7.4999 -8.99089 7.30961 -1.0983 0.302215 1.59834 -6.51653 -2.78112 -4.93335 10.87 -5.00422 -7.39654 -0.0 0.0 0.0 -0.0 0.0 0.0 1.23825e-14 -1.37596e-10 -2.6243e-13 52.7206 43.6376 29.8975 -25.6297 -22.5195 55.2725 -0.0847153 -8.2837 -1.17243 -7.04776e-10 6.15978e-10 4.25532e-09 -1.25314e-09 1.07417e-09 7.35703e-09 -7.0477e-10 6.1597e-10 4.2553e-09 7.73091 5.47488 0.417314 -7.04776e-10 6.15974e-10 4.25532e-09 2.90554 0.965183 0.102902 -7.04771e-10 6.15973e-10 4.25532e-09 10.2786 0.731801 0.0259123 -7.04787e-10 6.15974e-10 4.25534e-09 2.22167 -0.733487 -0.20892 1.22391e-14 -1.37606e-10 -2.62669e-13 -88.5696 37.141 16.8034 17.7644 -10.4338 -33.4987 0.00217989 -1.34138 0.188553 -3.14082e-10 -6.34305e-10 1.23379e-09 -5.34444e-10 -1.09536e-09 2.13996e-09 -3.14084e-10 -6.343e-10 1.23379e-09 -7.73091 5.47488 -0.417314 -3.14081e-10 -6.34299e-10 1.23378e-09 -2.90554 0.965183 -0.102902 -3.14087e-10 -6.34298e-10 1.23379e-09 -10.2786 0.731801 -0.0259123 -3.14078e-10 -6.343e-10 1.23378e-09 -2.22167 -0.733487 0.20892 -2.03217e-16 0.0 -3.88251e-19 5.55603 0.512873 0.600511 -0.321726 35.1134 0.263565 -0.419058 0.959857 -0.747419 2.03217e-16 0.0 3.88251e-19 9.01811 -38.6521 8.67514 7.04126 42.5022 46.4028 -177.739 -7.77253 54.1844
72.8712 80.8902 31.048 -137.079 -80.1365 142.032 6.16502 -8.6478 6.36752 -0.846645 0.128357 1.36736 -6.44022 -3.07775 -4.91172 10.8335 -4.77312 -7.37183 -0.0 0.0 0.0 -0.0 0.0 0.0 -5.58678e-14 -7.96504e-11 -1.50023e-13 54.9697 44.3599 26.7264 -25.4684 -22.1396 54.6591 -0.0753259 -7.81816 -1.10567 -3.78798e-10 3.88223e-10 2.39366e-09 -6.76131e-10 6.77313e-10 4.13892e-09 -3.78794e-10 3.88218e-10 2.39365e-09 7.73091 5.47488 0.417314 -3.78799e-10 3.88222e-10 2.39366e-09 2.90554 0.965183 0.102902 -3.78794e-10 3.8822e-10 2.39366e-09 10.2786 0.731801 0.0259123 -3.78809e-10 3.88222e-10 2.39368e-09 2.22167 -0.733487 -0.20892 -5.60033e-14 -7.96566e-11 -1.50225e-13 -88.2365 37.39 14.2003 17.7483 -10.4145 -33.4694 0.00175918 -1.20721 0.169687 1.40634e-10 -3.43372e-10 9.86309e-10 2.48414e-10 -5.92729e-10 1.70904e-09 1.40632e-10 -3.43367e-10 9.86308e-10 -7.73091 5.47488 -0.417314 1.40635e-10 -3.43366e-10 9.86304e-10 -2.90554 0.965183 -0.102902 1.40629e-10 -3.43365e-10 9.86305e-10 -10.2786 0.731801 -0.0259123 1.40639e-10 -3.43369e-10 9.86298e-10 -2.22167 -0.733487 0.20892 -2.03217e-16 0.0 -3.88251e-19 3.81436 -1.38396 -0.815539 -0.385973 38.6665 0.333186 -0.34988 4.75654 -0.316918 2.03217e-16 0.0 3.88251e-19 6.55067 -37.6213 6.98755 7.31801 42.9355 56.3489 -177.483 -9.2757 64.3001
71.982 80.8705 31.3929 -137.394 -81.4178 142.028 4.77894 -8.14556 5.38498 -0.570161 -0.0602606 1.12873 -6.40864 -3.38836 -4.9199 10.8625 -4.61901 -7.37745 -0.0 0.0 0.0 -0.0 0.0 0.0 -1.18382e-13 -1.73522e-11 -2.19669e-14 57.3814 44.8302 23.3855 -25.2874 -21.7261 53.9908 -0.0664249 -7.34076 -1.03739 -1.12142e-10 1.73144e-10 5.23565e-10 -2.01232e-10 3.01924e-10 9.0536e-10 -1.12139e-10 1.73142e-10 5.23553e-10 7.73091 5.47488 0.417314 -1.12143e-10 1.73146e-10 5.23568e-10 2.90554 0.965183 0.102902 -1.12138e-10 1.73143e-10 5.23565e-10 10.2786 0.731801 0.0259123 -1.12151e-10 1.73145e-10 5.23582e-10 2.22167 -0.733487 -0.20892 -1.1851e-13 -1.73547e-11 -2.21303e-14 -87.7832 37.7973 11.43 17.7886 -10.457 -33.5596 0.00133635 -1.04653 0.147097 5.09159e-10 -3.48758e-11 7.12437e-10 8.82097e-10 -5.96571e-11 1.23266e-09 5.09157e-10 -3.48717e-11 7.12438e-10 -7.73091 5.47488 -0.417314 5.09159e-10 -3.48715e-11 7.12433e-10 -2.90554 0.965183 -0.102902 5.09154e-10 -3.48689e-11 7.12432e-10 -10.2786 0.731801 -0.0259123 5.09164e-10 -3.48754e-11 7.12424e-10 -2.22167 -0.733487 0.20892 -2.03217e-16 0.0 -3.88251e-19 2.00559 -3.47493 -2.2422 -0.468308 42.5096 0.425433 -0.327759 8.61231 -0.00814852 2.03217e-16 0.0 3.88251e-19 4.11737 -36.7429 5.31953 7.38626 42.8746 66.1722 -176.872 -7.85592 74.1821
71.1138 80.8854 31.7279 -137.289 -82.7571 141.522 3.52188 -7.5266 4.50395 -0.317986 -0.216161 0.912869 -6.44238 -3.63704 -4.96392 10.9944 -4.62092 -7.41689 -0.0 0.0 0.0 -0.0 0.0 0.0 -1.47738e-13 2.25152e-11 5.74985e-14 59.9747 45.0046 19.8852 -25.0932 -21.2975 53.2815 -0.0583957 -6.87926 -0.971536 4.72837e-11 -9.56075e-12 -5.08793e-10 8.27481e-11 -1.6259e-11 -8.80082e-10 4.72869e-11 -9.56115e-12 -5.08803e-10 7.73091 5.47488 0.417314 4.7283e-11 -9.55697e-12 -5.0879e-10 2.90554 0.965183 0.102902 4.7288e-11 -9.56065e-12 -5.08793e-10 10.2786 0.731801 0.0259123 4.7276e-11 -9.55876e-12 -5.08777e-10 2.22167 -0.733487 -0.20892 -1.47865e-13 2.25152e-11 5.73494e-14 -87.2136 38.3824 8.58242 17.9194 -10.6004 -33.8398 0.000965642 -0.887279 0.124709 6.37029e-10 1.10162e-10 4.8381e-10 1.10102e-09 1.90941e-10 8.35944e-10 6.37027e-10 1.10165e-10 4.83813e-10 -7.73091 5.47488 -0.417314 6.3703e-10 1.10165e-10 4.83807e-10 -2.90554 0.965183 -0.102902 6.37024e-10 1.10168e-10 4.83805e-10 -10.2786 0.731801 -0.0259123 6.37034e-10 1.10161e-10 4.83797e-10 -2.22167 -0.733487 0.20892 -2.03217e-16 0.0 -3.88251e-19 0.329271 -5.69683 -3.51819 -0.570371 46.5248 0.542676 -0.336728 11.8731 0.244426 2.03217e-16 0.0 3.88251e-19 2.02876 -35.8091 3.91064 7.97133 42.8992 74.5414 -176.43 -3.92152 82.8293
